<?xml version="1.0" encoding="iso-8859-1"?>
<!-- Generator: Adobe Illustrator 24.3.0, SVG Export Plug-In . SVG Version: 6.00 Build 0)  -->
<svg version="1.1" id="Layer_1" xmlns="http://www.w3.org/2000/svg" xmlns:xlink="http://www.w3.org/1999/xlink" x="0px" y="0px"
	 viewBox="0 0 500 500" style="enable-background:new 0 0 500 500;" xml:space="preserve">
<g id="watermark_1_">
	<g>
		<g id="watermark" style="opacity:0.61;">
			<g>
				<g>
					<g>
						<g>
							<polygon style="fill:#FFFFFF;" points="213.765,461.172 208.204,474.017 205.268,474.017 199.726,461.172 202.938,461.172 
								206.846,470.347 210.81,461.172 							"/>
						</g>
						<g>
							<path style="fill:#FFFFFF;" d="M223.507,469.741h-7.469c0.275,1.23,1.321,1.982,2.826,1.982c1.046,0,1.798-0.312,2.477-0.954
								l1.523,1.651c-0.917,1.046-2.294,1.597-4.074,1.597c-3.413,0-5.634-2.147-5.634-5.083c0-2.954,2.257-5.083,5.267-5.083
								c2.899,0,5.138,1.945,5.138,5.12C223.562,469.191,223.526,469.503,223.507,469.741 M216.002,468.071h4.863
								c-0.202-1.248-1.138-2.055-2.422-2.055C217.139,466.016,216.204,466.805,216.002,468.071"/>
						</g>
						<g>
							<path style="fill:#FFFFFF;" d="M224.735,468.934c0-2.973,2.294-5.083,5.505-5.083c2.074,0,3.707,0.899,4.423,2.514
								l-2.22,1.193c-0.532-0.936-1.321-1.358-2.221-1.358c-1.45,0-2.587,1.009-2.587,2.734c0,1.725,1.138,2.734,2.587,2.734
								c0.899,0,1.688-0.404,2.221-1.358l2.22,1.211c-0.716,1.578-2.349,2.495-4.423,2.495
								C227.029,474.017,224.735,471.907,224.735,468.934"/>
						</g>
						<g>
							<path style="fill:#FFFFFF;" d="M242.828,473.393c-0.587,0.422-1.45,0.624-2.331,0.624c-2.33,0-3.688-1.193-3.688-3.542
								v-4.055h-1.523v-2.202h1.523v-2.404h2.863v2.404h2.459v2.202h-2.459v4.019c0,0.844,0.458,1.303,1.229,1.303
								c0.422,0,0.844-0.128,1.156-0.367L242.828,473.393z"/>
						</g>
					</g>
					<g>
						<path style="fill:#FFFFFF;" d="M262.474,463.997v2.643c-0.238-0.018-0.422-0.037-0.642-0.037
							c-1.578,0-2.624,0.862-2.624,2.753v4.661h-2.863v-9.873h2.734v1.303C259.776,464.493,260.951,463.997,262.474,463.997"/>
					</g>
					<g>
						<path style="fill:#FFFFFF;" d="M263.299,472.53l1.009-2.239c1.083,0.789,2.697,1.339,4.239,1.339
							c1.762,0,2.477-0.587,2.477-1.376c0-2.404-7.469-0.752-7.469-5.524c0-2.184,1.762-4,5.413-4c1.615,0,3.267,0.385,4.459,1.138
							l-0.918,2.257c-1.193-0.679-2.422-1.009-3.56-1.009c-1.761,0-2.44,0.66-2.44,1.468c0,2.367,7.468,0.734,7.468,5.45
							c0,2.147-1.78,3.982-5.45,3.982C266.492,474.017,264.437,473.411,263.299,472.53"/>
					</g>
					<g>
						<path style="fill:#FFFFFF;" d="M285.428,469.741h-7.469c0.275,1.23,1.321,1.982,2.826,1.982c1.046,0,1.798-0.312,2.477-0.954
							l1.523,1.651c-0.918,1.046-2.294,1.597-4.074,1.597c-3.413,0-5.634-2.147-5.634-5.083c0-2.954,2.257-5.083,5.267-5.083
							c2.9,0,5.138,1.945,5.138,5.12C285.484,469.191,285.447,469.503,285.428,469.741 M277.923,468.071h4.863
							c-0.202-1.248-1.138-2.055-2.422-2.055C279.061,466.016,278.125,466.805,277.923,468.071"/>
					</g>
					<g>
						<path style="fill:#FFFFFF;" d="M297.007,469.741h-7.469c0.275,1.23,1.321,1.982,2.826,1.982c1.046,0,1.798-0.312,2.477-0.954
							l1.523,1.651c-0.918,1.046-2.294,1.597-4.074,1.597c-3.413,0-5.634-2.147-5.634-5.083c0-2.954,2.257-5.083,5.267-5.083
							c2.899,0,5.138,1.945,5.138,5.12C297.062,469.191,297.025,469.503,297.007,469.741 M289.501,468.071h4.863
							c-0.202-1.248-1.138-2.055-2.422-2.055C290.639,466.016,289.703,466.805,289.501,468.071"/>
					</g>
					<g>
						<polygon style="fill:#FFFFFF;" points="303.208,470.145 301.831,471.503 301.831,474.017 298.969,474.017 298.969,460.401 
							301.831,460.401 301.831,468.108 306.016,464.144 309.429,464.144 305.318,468.328 309.796,474.017 306.327,474.017 						"/>
					</g>
					<g>
						<path style="fill:#FFFFFF;" d="M256.601,475.359L256.601,475.359l-2.86-2.86c-0.435,0.508-0.953,0.943-1.534,1.284
							c-0.092,0.069-0.186,0.136-0.283,0.199l3.027,3.027c0.456,0.456,1.195,0.456,1.65,0
							C257.057,476.554,257.057,475.815,256.601,475.359"/>
					</g>
					<g>
						<path style="fill:#FFFFFF;" d="M249.984,463.244c0.221-0.173,0.495-0.281,0.797-0.281c0.042,0,0.083,0.002,0.124,0.006
							c-0.214-0.156-0.478-0.249-0.764-0.249c-0.395,0-0.744,0.18-0.981,0.458c-0.051,0-0.1,0.006-0.151,0.008
							c0.039-0.077,0.064-0.162,0.064-0.255c0-0.234-0.143-0.434-0.346-0.519c0.087,0.126,0.138,0.279,0.138,0.445
							c0,0.122-0.031,0.237-0.081,0.341c-2.811,0.201-5.03,2.539-5.03,5.4c0,2.993,2.426,5.42,5.42,5.42
							c2.993,0,5.42-2.426,5.42-5.42C254.595,465.879,252.593,463.635,249.984,463.244 M247.983,464.656
							c0.435,0,0.844,0.112,1.199,0.309c0.374-0.245,0.82-0.387,1.299-0.387c0.711,0,1.348,0.312,1.784,0.806
							c-0.435-0.379-1.004-0.61-1.627-0.61c-0.449,0-0.87,0.12-1.234,0.329c-0.079,0.046-0.156,0.096-0.229,0.15
							c-0.065-0.048-0.133-0.093-0.204-0.134c-0.369-0.219-0.8-0.344-1.26-0.344c-0.3,0-0.588,0.054-0.854,0.152
							C247.196,464.754,247.578,464.656,247.983,464.656 M251.772,469.098c0.115,0.305,0.181,0.634,0.181,0.979
							c0,1.534-1.244,2.777-2.778,2.777c-1.534,0-2.777-1.243-2.777-2.777c0-0.345,0.066-0.674,0.181-0.979
							c-0.62-0.382-1.035-1.064-1.035-1.846c0-1.197,0.971-2.168,2.168-2.168c0.565,0,1.078,0.218,1.463,0.572
							c0.386-0.354,0.899-0.572,1.464-0.572c1.197,0,2.168,0.971,2.168,2.168C252.807,468.034,252.392,468.716,251.772,469.098"/>
					</g>
					<g>
						<path style="fill:#FFFFFF;" d="M251.666,467.061c0,0.497-0.404,0.901-0.901,0.901c-0.497,0-0.901-0.404-0.901-0.901
							s0.404-0.901,0.901-0.901c0.101,0,0.197,0.017,0.287,0.047c-0.03,0.062-0.045,0.132-0.045,0.204
							c0,0.273,0.221,0.494,0.494,0.494c0.05,0,0.099-0.008,0.146-0.022C251.66,466.941,251.666,467,251.666,467.061"/>
					</g>
					<g>
						<path style="fill:#FFFFFF;" d="M248.255,467.061c0,0.376-0.305,0.681-0.681,0.681c-0.376,0-0.681-0.305-0.681-0.681
							s0.305-0.681,0.681-0.681c0.076,0,0.149,0.013,0.217,0.035c-0.023,0.047-0.034,0.1-0.034,0.155
							c0,0.206,0.167,0.374,0.374,0.374c0.038,0,0.075-0.006,0.11-0.017C248.25,466.97,248.255,467.015,248.255,467.061"/>
					</g>
					<g>
						<g>
							<g>
								<rect x="242.908" y="467.83" style="fill:#FFFFFF;" width="0.616" height="0.616"/>
							</g>
							<g>
								<rect x="254.827" y="467.83" style="fill:#FFFFFF;" width="0.616" height="0.616"/>
							</g>
							<g>
								<path style="fill:#FFFFFF;" d="M255.205,468.082h-0.14c0-3.248-2.642-5.89-5.89-5.89c-3.248,0-5.89,2.642-5.89,5.89h-0.14
									c0-1.611,0.627-3.125,1.766-4.264c1.139-1.139,2.653-1.766,4.264-1.766c1.611,0,3.125,0.627,4.264,1.766
									C254.578,464.957,255.205,466.471,255.205,468.082"/>
							</g>
						</g>
						<g>
							<rect x="248.868" y="461.814" style="fill:#FFFFFF;" width="0.616" height="0.616"/>
						</g>
						<g>
							<rect x="244.95" y="462.052" style="fill:#FFFFFF;" width="8.45" height="0.14"/>
						</g>
						<g>
							<path style="fill:#FFFFFF;" d="M245.174,462.15c0,0.108-0.088,0.196-0.196,0.196c-0.108,0-0.196-0.088-0.196-0.196
								c0-0.108,0.088-0.196,0.196-0.196C245.086,461.954,245.174,462.042,245.174,462.15"/>
						</g>
						<g>
							<path style="fill:#FFFFFF;" d="M253.596,462.15c0,0.108-0.088,0.196-0.196,0.196c-0.108,0-0.196-0.088-0.196-0.196
								c0-0.108,0.088-0.196,0.196-0.196C253.509,461.954,253.596,462.042,253.596,462.15"/>
						</g>
					</g>
				</g>
				<g>
					<path style="fill:#FFFFFF;" d="M314.356,473.409c0,1.559-2.364,1.559-2.364,0C311.993,471.851,314.356,471.851,314.356,473.409
						z"/>
				</g>
				<g>
					<g>
						<g>
							<path style="fill:#FFFFFF;" d="M161.739,466.549l1.772,6.088l1.855-6.088h2.215l-2.823,8.14h-2.33l-0.837-2.396l-0.722-2.708
								l-0.722,2.708l-0.837,2.396h-2.33l-2.839-8.14h2.231l1.855,6.088l1.756-6.088H161.739z"/>
						</g>
						<g>
							<path style="fill:#FFFFFF;" d="M176.713,466.549l1.772,6.088l1.855-6.088h2.215l-2.823,8.14h-2.33l-0.837-2.396l-0.722-2.708
								l-0.722,2.708l-0.837,2.396h-2.33l-2.839-8.14h2.231l1.855,6.088l1.756-6.088H176.713z"/>
						</g>
						<g>
							<path style="fill:#FFFFFF;" d="M191.687,466.549l1.772,6.088l1.855-6.088h2.215l-2.823,8.14h-2.33l-0.837-2.396l-0.722-2.708
								l-0.722,2.708l-0.837,2.396h-2.33l-2.839-8.14h2.231l1.855,6.088l1.756-6.088H191.687z"/>
						</g>
					</g>
					<g>
						<path style="fill:#FFFFFF;" d="M200.908,473.52c0,1.559-2.364,1.559-2.364,0C198.545,471.962,200.908,471.962,200.908,473.52z
							"/>
					</g>
					<g>
						<path style="fill:#FFFFFF;" d="M322.71,473.409c-0.935,0.919-1.919,1.28-3.117,1.28c-2.346,0-4.3-1.411-4.3-4.282
							s1.953-4.284,4.3-4.284c1.149,0,2.035,0.329,2.921,1.199l-1.264,1.329c-0.476-0.428-1.066-0.64-1.623-0.64
							c-1.346,0-2.33,0.985-2.33,2.396c0,1.542,1.05,2.362,2.297,2.362c0.64,0,1.28-0.18,1.772-0.672L322.71,473.409z"/>
					</g>
					<g>
						<path style="fill:#FFFFFF;" d="M331.805,470.472c0,2.33-1.591,4.217-4.217,4.217c-2.626,0-4.201-1.887-4.201-4.217
							c0-2.314,1.609-4.217,4.185-4.217C330.149,466.255,331.805,468.158,331.805,470.472z M325.389,470.472
							c0,1.231,0.739,2.38,2.199,2.38c1.46,0,2.199-1.149,2.199-2.38c0-1.215-0.854-2.396-2.199-2.396
							C326.144,468.077,325.389,469.258,325.389,470.472z"/>
					</g>
					<g>
						<path style="fill:#FFFFFF;" d="M338.572,474.689v-4.332c0-1.068-0.559-2.035-1.658-2.035c-1.082,0-1.722,0.967-1.722,2.035
							v4.332h-2.003v-8.107h1.855l0.148,0.985c0.426-0.82,1.362-1.116,2.133-1.116c0.969,0,1.937,0.394,2.396,1.51
							c0.723-1.149,1.658-1.478,2.708-1.478c2.297,0,3.43,1.412,3.43,3.84v4.365h-2.003v-4.365c0-1.066-0.442-1.97-1.526-1.97
							c-1.082,0-1.756,0.935-1.756,2.003v4.332H338.572z"/>
					</g>
				</g>
			</g>
		</g>
		<g style="opacity:0.61;">
			<g>
				<g>
					<path style="fill:#FFFFFF;" d="M345.988,431.299c-0.006-1.224-0.959-2.121-2.189-2.14c-0.924-0.014-0.832,0.12-0.834-0.867
						c-0.003-1.097-0.007-2.194,0.003-3.292c0.003-0.379-0.112-0.691-0.362-0.976c-2.342-2.668-4.678-5.342-7.019-8.011
						c-0.12-0.137-0.275-0.244-0.414-0.366c-6.214,0-12.427,0-18.641,0c-0.794,0.293-1.14,0.868-1.138,1.709
						c0.01,3.748,0.004,7.496,0.004,11.243c0,0.556-0.003,0.589-0.55,0.551c-1.497-0.102-2.516,0.986-2.497,2.492
						c0.044,3.476,0.013,6.953,0.014,10.429c0.001,1.58,0.867,2.443,2.45,2.449c0.582,0.002,0.582,0.002,0.582,0.6
						c0,2.219-0.001,4.438,0.001,6.657c0.001,1.192,0.58,1.771,1.768,1.771c8.013,0.001,16.027,0.001,24.04,0
						c1.168,0,1.755-0.583,1.757-1.745c0.002-2.256,0-4.512,0.001-6.768c0-0.512,0.002-0.511,0.52-0.515
						c0.271-0.002,0.541,0.008,0.809-0.058c0.996-0.246,1.69-1.044,1.694-2.069C346.003,438.696,346.005,434.997,345.988,431.299z
						 M317.537,417.162c5.337,0,10.674,0,16.01,0c0.548,0,0.554,0.007,0.554,0.561c0.001,2.243-0.001,4.486,0.001,6.73
						c0.001,0.811,0.249,1.059,1.06,1.059c1.91,0.001,3.821,0,5.731,0.001c0.458,0,0.479,0.021,0.481,0.483
						c0.003,0.887,0.002,1.775,0,2.662c-0.001,0.477-0.024,0.498-0.504,0.499c-3.895,0.001-7.79,0-11.684,0
						c-3.882,0-7.765,0-11.647,0c-0.55,0-0.552-0.001-0.552-0.561c-0.001-3.624-0.001-7.247,0-10.871
						C316.987,417.166,316.991,417.162,317.537,417.162z M340.822,451.579c-3.883,0.001-7.766,0-11.65,0c-3.871,0-7.742,0-11.613,0
						c-0.572,0-0.574-0.002-0.574-0.579c-0.001-1.997-0.001-3.994,0.001-5.991c0-0.464,0.023-0.486,0.478-0.487
						c7.803-0.001,15.607-0.001,23.41,0c0.478,0,0.499,0.02,0.499,0.503c0.002,1.997,0.001,3.994,0,5.991
						C341.375,451.574,341.37,451.579,340.822,451.579z"/>
				</g>
				<g>
					<g>
						<rect x="327.418" y="417.053" style="fill:#FFFFFF;" width="1.757" height="1.054"/>
					</g>
					<g>
						<rect x="325.662" y="418.107" style="fill:#FFFFFF;" width="1.757" height="1.054"/>
					</g>
					<g>
						<rect x="327.418" y="419.161" style="fill:#FFFFFF;" width="1.757" height="1.054"/>
					</g>
					<g>
						<rect x="325.662" y="420.215" style="fill:#FFFFFF;" width="1.757" height="1.054"/>
					</g>
					<g>
						<rect x="327.418" y="421.269" style="fill:#FFFFFF;" width="1.757" height="1.054"/>
					</g>
					<g>
						<rect x="325.662" y="422.323" style="fill:#FFFFFF;" width="1.757" height="1.054"/>
					</g>
					<g>
						<rect x="327.418" y="423.378" style="fill:#FFFFFF;" width="1.757" height="1.054"/>
					</g>
					<g>
						<rect x="325.662" y="424.432" style="fill:#FFFFFF;" width="1.757" height="1.054"/>
					</g>
					<g>
						<rect x="327.418" y="425.486" style="fill:#FFFFFF;" width="1.757" height="1.054"/>
					</g>
					<g>
						<rect x="325.662" y="426.54" style="fill:#FFFFFF;" width="1.757" height="1.054"/>
					</g>
					<g>
						<rect x="327.418" y="427.594" style="fill:#FFFFFF;" width="1.757" height="1.054"/>
					</g>
					<g>
						<rect x="325.662" y="428.648" style="fill:#FFFFFF;" width="1.757" height="1.054"/>
					</g>
				</g>
			</g>
			<g>
				<path style="fill:#FFFFFF;" d="M187.637,431.299c-0.006-1.224-0.959-2.121-2.189-2.14c-0.924-0.014-0.832,0.12-0.834-0.867
					c-0.003-1.097-0.007-2.194,0.003-3.292c0.003-0.379-0.112-0.691-0.362-0.976c-2.342-2.668-4.678-5.342-7.019-8.011
					c-0.12-0.137-0.275-0.244-0.414-0.366c-6.214,0-12.427,0-18.641,0c-0.794,0.293-1.14,0.868-1.138,1.709
					c0.01,3.748,0.004,7.496,0.004,11.243c0,0.556-0.003,0.589-0.55,0.551c-1.497-0.102-2.516,0.986-2.497,2.492
					c0.044,3.476,0.013,6.953,0.014,10.429c0.001,1.58,0.867,2.443,2.45,2.449c0.582,0.002,0.582,0.002,0.582,0.6
					c0,2.219-0.001,4.438,0.001,6.657c0.001,1.192,0.58,1.771,1.768,1.771c8.013,0.001,16.027,0.001,24.04,0
					c1.168,0,1.755-0.583,1.757-1.745c0.002-2.256,0-4.512,0.001-6.768c0-0.512,0.002-0.511,0.52-0.515
					c0.271-0.002,0.541,0.008,0.809-0.058c0.996-0.246,1.69-1.044,1.694-2.069C187.652,438.696,187.655,434.997,187.637,431.299z
					 M159.187,417.162c5.337,0,10.674,0,16.01,0c0.548,0,0.554,0.007,0.554,0.561c0.001,2.243-0.001,4.486,0.001,6.73
					c0.001,0.811,0.249,1.059,1.06,1.059c1.91,0.001,3.821,0,5.731,0.001c0.458,0,0.479,0.021,0.481,0.483
					c0.003,0.887,0.002,1.775,0,2.662c-0.001,0.477-0.024,0.498-0.504,0.499c-3.895,0.001-7.79,0-11.684,0
					c-3.882,0-7.765,0-11.647,0c-0.55,0-0.552-0.001-0.552-0.561c-0.001-3.624-0.001-7.247,0-10.871
					C158.636,417.166,158.64,417.162,159.187,417.162z M182.472,451.579c-3.883,0.001-7.766,0-11.65,0c-3.871,0-7.742,0-11.613,0
					c-0.572,0-0.574-0.002-0.574-0.579c-0.001-1.997-0.001-3.994,0.001-5.991c0-0.464,0.023-0.486,0.478-0.487
					c7.803-0.001,15.607-0.001,23.41,0c0.478,0,0.499,0.02,0.499,0.503c0.002,1.997,0.001,3.994,0,5.991
					C183.024,451.574,183.019,451.579,182.472,451.579z"/>
			</g>
			<g>
				<path style="fill:#FFFFFF;" d="M159.779,440.669v-7.897h2.779c0.375,0,0.726,0.061,1.053,0.182
					c0.327,0.121,0.612,0.292,0.855,0.513c0.242,0.221,0.434,0.483,0.573,0.789c0.14,0.305,0.21,0.642,0.21,1.009
					c0,0.375-0.07,0.715-0.21,1.02c-0.14,0.305-0.331,0.568-0.573,0.789c-0.243,0.221-0.528,0.392-0.855,0.513
					c-0.327,0.121-0.678,0.182-1.053,0.182h-1.29v2.901H159.779z M162.58,436.356c0.39,0,0.684-0.111,0.882-0.331
					c0.199-0.22,0.298-0.474,0.298-0.761c0-0.14-0.024-0.276-0.072-0.408c-0.048-0.132-0.121-0.248-0.221-0.347
					c-0.099-0.099-0.223-0.178-0.37-0.237c-0.147-0.059-0.32-0.089-0.518-0.089h-1.312v2.173H162.58z"/>
				<path style="fill:#FFFFFF;" d="M166.308,432.771h1.731l3.177,5.294h0.088l-0.088-1.522v-3.772h1.478v7.897h-1.566l-3.353-5.592
					h-0.088l0.088,1.522v4.07h-1.467V432.771z"/>
				<path style="fill:#FFFFFF;" d="M177.922,436.334h3.872c0.022,0.089,0.04,0.195,0.055,0.32c0.014,0.125,0.022,0.25,0.022,0.375
					c0,0.507-0.077,0.985-0.231,1.434c-0.154,0.449-0.397,0.849-0.728,1.202c-0.353,0.375-0.776,0.666-1.268,0.871
					c-0.493,0.206-1.055,0.309-1.688,0.309c-0.574,0-1.114-0.103-1.622-0.309c-0.507-0.206-0.948-0.492-1.323-0.86
					c-0.375-0.367-0.673-0.803-0.894-1.307c-0.221-0.504-0.331-1.053-0.331-1.649c0-0.595,0.11-1.145,0.331-1.649
					c0.221-0.504,0.518-0.939,0.894-1.307c0.375-0.367,0.816-0.654,1.323-0.86c0.507-0.206,1.048-0.309,1.622-0.309
					c0.64,0,1.211,0.11,1.715,0.331c0.504,0.221,0.935,0.526,1.296,0.915l-1.025,1.004c-0.258-0.272-0.544-0.48-0.861-0.623
					c-0.316-0.143-0.695-0.215-1.136-0.215c-0.361,0-0.703,0.065-1.026,0.193c-0.324,0.129-0.607,0.311-0.85,0.546
					c-0.242,0.235-0.436,0.52-0.579,0.855c-0.143,0.335-0.215,0.708-0.215,1.119c0,0.412,0.072,0.785,0.215,1.12
					c0.143,0.335,0.338,0.62,0.584,0.855c0.246,0.235,0.531,0.418,0.855,0.546c0.323,0.129,0.669,0.193,1.037,0.193
					c0.419,0,0.773-0.061,1.064-0.182c0.29-0.121,0.538-0.278,0.744-0.469c0.148-0.132,0.275-0.3,0.381-0.502
					c0.106-0.202,0.189-0.428,0.248-0.678h-2.482V436.334z"/>
			</g>
			<g>
				<path style="fill:#FFFFFF;" d="M224.019,431.299c-0.006-1.224-0.959-2.121-2.189-2.14c-0.924-0.014-0.832,0.12-0.834-0.867
					c-0.003-1.097-0.007-2.194,0.003-3.292c0.003-0.379-0.112-0.691-0.362-0.976c-2.342-2.668-4.678-5.342-7.019-8.011
					c-0.12-0.137-0.275-0.244-0.414-0.366c-6.214,0-12.427,0-18.641,0c-0.794,0.293-1.14,0.868-1.138,1.709
					c0.01,3.748,0.004,7.496,0.004,11.243c0,0.556-0.003,0.589-0.55,0.551c-1.497-0.102-2.516,0.986-2.497,2.492
					c0.044,3.476,0.013,6.953,0.014,10.429c0.001,1.58,0.867,2.443,2.45,2.449c0.582,0.002,0.582,0.002,0.582,0.6
					c0,2.219-0.001,4.438,0.001,6.657c0.001,1.192,0.58,1.771,1.768,1.771c8.013,0.001,16.027,0.001,24.04,0
					c1.168,0,1.755-0.583,1.757-1.745c0.002-2.256,0-4.512,0.001-6.768c0-0.512,0.002-0.511,0.52-0.515
					c0.271-0.002,0.541,0.008,0.809-0.058c0.997-0.246,1.69-1.044,1.694-2.069C224.034,438.696,224.036,434.997,224.019,431.299z
					 M195.568,417.162c5.337,0,10.674,0,16.01,0c0.548,0,0.554,0.007,0.554,0.561c0.001,2.243-0.001,4.486,0.001,6.73
					c0.001,0.811,0.249,1.059,1.06,1.059c1.91,0.001,3.821,0,5.731,0.001c0.458,0,0.479,0.021,0.481,0.483
					c0.003,0.887,0.002,1.775,0,2.662c-0.001,0.477-0.024,0.498-0.504,0.499c-3.895,0.001-7.79,0-11.684,0
					c-3.882,0-7.765,0-11.647,0c-0.55,0-0.552-0.001-0.552-0.561c-0.001-3.624-0.001-7.247,0-10.871
					C195.018,417.166,195.022,417.162,195.568,417.162z M218.854,451.579c-3.883,0.001-7.766,0-11.65,0c-3.871,0-7.742,0-11.613,0
					c-0.572,0-0.574-0.002-0.574-0.579c-0.001-1.997-0.001-3.994,0.001-5.991c0-0.464,0.023-0.486,0.478-0.487
					c7.803-0.001,15.607-0.001,23.41,0c0.478,0,0.499,0.02,0.499,0.503c0.002,1.997,0.001,3.994,0,5.991
					C219.406,451.574,219.401,451.579,218.854,451.579z"/>
			</g>
			<g>
				<path style="fill:#FFFFFF;" d="M205.111,432.771h1.699l2.967,7.897h-1.644l-0.651-1.886h-3.044l-0.651,1.886h-1.643
					L205.111,432.771z M206.997,437.415l-0.706-1.974l-0.287-0.96h-0.088l-0.287,0.96l-0.706,1.974H206.997z"/>
				<path style="fill:#FFFFFF;" d="M211.331,434.536c-0.125,0-0.245-0.024-0.359-0.072c-0.114-0.048-0.213-0.114-0.298-0.199
					c-0.084-0.084-0.151-0.182-0.198-0.292c-0.048-0.11-0.072-0.232-0.072-0.364s0.024-0.254,0.072-0.364
					c0.048-0.11,0.114-0.208,0.198-0.292c0.084-0.084,0.184-0.151,0.298-0.198c0.114-0.048,0.233-0.072,0.359-0.072
					c0.257,0,0.478,0.09,0.662,0.27c0.184,0.181,0.276,0.399,0.276,0.656s-0.092,0.476-0.276,0.656
					C211.809,434.446,211.589,434.536,211.331,434.536z M210.615,440.669v-5.404h1.445v5.404H210.615z"/>
			</g>
			<g>
				<path style="fill:#FFFFFF;" d="M261.044,431.299c-0.006-1.224-0.959-2.121-2.189-2.14c-0.924-0.014-0.832,0.12-0.834-0.867
					c-0.003-1.097-0.007-2.194,0.003-3.292c0.003-0.379-0.112-0.691-0.362-0.976c-2.342-2.668-4.678-5.342-7.019-8.011
					c-0.12-0.137-0.275-0.244-0.414-0.366c-6.214,0-12.427,0-18.641,0c-0.794,0.293-1.14,0.868-1.138,1.709
					c0.01,3.748,0.004,7.496,0.004,11.243c0,0.556-0.003,0.589-0.55,0.551c-1.497-0.102-2.516,0.986-2.497,2.492
					c0.044,3.476,0.013,6.953,0.014,10.429c0.001,1.58,0.867,2.443,2.45,2.449c0.582,0.002,0.582,0.002,0.582,0.6
					c0,2.219-0.001,4.438,0.001,6.657c0.001,1.192,0.58,1.771,1.768,1.771c8.013,0.001,16.027,0.001,24.04,0
					c1.168,0,1.755-0.583,1.757-1.745c0.002-2.256,0-4.512,0.001-6.768c0-0.512,0.002-0.511,0.52-0.515
					c0.271-0.002,0.541,0.008,0.809-0.058c0.996-0.246,1.69-1.044,1.694-2.069C261.059,438.696,261.061,434.997,261.044,431.299z
					 M232.593,417.162c5.337,0,10.674,0,16.01,0c0.548,0,0.554,0.007,0.554,0.561c0.001,2.243-0.001,4.486,0.001,6.73
					c0.001,0.811,0.249,1.059,1.06,1.059c1.91,0.001,3.821,0,5.731,0.001c0.458,0,0.479,0.021,0.481,0.483
					c0.003,0.887,0.002,1.775,0,2.662c-0.001,0.477-0.024,0.498-0.504,0.499c-3.895,0.001-7.79,0-11.684,0
					c-3.882,0-7.765,0-11.647,0c-0.55,0-0.552-0.001-0.552-0.561c-0.001-3.624-0.001-7.247,0-10.871
					C232.042,417.166,232.047,417.162,232.593,417.162z M255.878,451.579c-3.883,0.001-7.766,0-11.65,0c-3.871,0-7.742,0-11.613,0
					c-0.572,0-0.574-0.002-0.574-0.579c-0.001-1.997-0.001-3.994,0.001-5.991c0-0.464,0.023-0.486,0.478-0.487
					c7.803-0.001,15.607-0.001,23.41,0c0.478,0,0.499,0.02,0.499,0.503c0.002,1.997,0.001,3.994,0,5.991
					C256.431,451.574,256.426,451.579,255.878,451.579z"/>
			</g>
			<g>
				<path style="fill:#FFFFFF;" d="M236.361,440.845c-0.338,0-0.662-0.048-0.971-0.143c-0.309-0.095-0.592-0.239-0.849-0.43
					c-0.257-0.191-0.481-0.425-0.673-0.7c-0.191-0.276-0.342-0.597-0.452-0.965l1.401-0.551c0.103,0.397,0.283,0.726,0.54,0.987
					c0.257,0.261,0.596,0.392,1.015,0.392c0.154,0,0.303-0.02,0.447-0.061c0.143-0.04,0.272-0.099,0.386-0.176
					s0.204-0.175,0.27-0.292c0.066-0.118,0.099-0.254,0.099-0.408c0-0.147-0.026-0.279-0.077-0.397
					c-0.051-0.117-0.138-0.227-0.259-0.331c-0.121-0.103-0.28-0.202-0.475-0.298c-0.195-0.095-0.435-0.195-0.722-0.298l-0.485-0.176
					c-0.213-0.073-0.429-0.173-0.645-0.298c-0.217-0.125-0.413-0.276-0.59-0.452c-0.177-0.176-0.322-0.384-0.436-0.623
					c-0.114-0.239-0.171-0.509-0.171-0.81c0-0.309,0.06-0.597,0.182-0.866c0.121-0.268,0.294-0.503,0.518-0.706
					c0.224-0.202,0.492-0.36,0.805-0.474s0.66-0.171,1.042-0.171c0.397,0,0.74,0.053,1.031,0.16
					c0.291,0.107,0.537,0.243,0.739,0.408c0.202,0.165,0.366,0.348,0.491,0.546c0.125,0.199,0.217,0.386,0.276,0.563l-1.312,0.551
					c-0.074-0.221-0.208-0.419-0.402-0.596c-0.195-0.176-0.462-0.265-0.8-0.265c-0.324,0-0.592,0.075-0.805,0.226
					c-0.213,0.151-0.32,0.348-0.32,0.59c0,0.235,0.103,0.436,0.309,0.601c0.206,0.165,0.533,0.325,0.982,0.48l0.497,0.165
					c0.316,0.111,0.605,0.237,0.866,0.381c0.261,0.143,0.485,0.314,0.673,0.513c0.187,0.199,0.331,0.425,0.43,0.678
					c0.1,0.254,0.149,0.546,0.149,0.877c0,0.412-0.083,0.767-0.248,1.064c-0.165,0.298-0.377,0.542-0.634,0.734
					c-0.258,0.191-0.548,0.335-0.872,0.43C236.986,440.797,236.67,440.845,236.361,440.845z"/>
				<path style="fill:#FFFFFF;" d="M239.516,432.771h1.61l1.633,4.754l0.287,1.015h0.088l0.309-1.015l1.699-4.754h1.61l-2.879,7.897
					h-1.566L239.516,432.771z"/>
				<path style="fill:#FFFFFF;" d="M251.097,436.334h3.871c0.022,0.089,0.04,0.195,0.055,0.32c0.015,0.125,0.023,0.25,0.023,0.375
					c0,0.507-0.078,0.985-0.232,1.434c-0.154,0.449-0.397,0.849-0.728,1.202c-0.353,0.375-0.775,0.666-1.268,0.871
					c-0.493,0.206-1.055,0.309-1.688,0.309c-0.574,0-1.114-0.103-1.621-0.309c-0.507-0.206-0.949-0.492-1.324-0.86
					c-0.375-0.367-0.673-0.803-0.894-1.307c-0.22-0.504-0.331-1.053-0.331-1.649c0-0.595,0.11-1.145,0.331-1.649
					c0.221-0.504,0.518-0.939,0.894-1.307c0.375-0.367,0.816-0.654,1.324-0.86c0.507-0.206,1.047-0.309,1.621-0.309
					c0.64,0,1.211,0.11,1.715,0.331c0.504,0.221,0.936,0.526,1.296,0.915l-1.026,1.004c-0.257-0.272-0.544-0.48-0.861-0.623
					c-0.316-0.143-0.694-0.215-1.136-0.215c-0.36,0-0.702,0.065-1.026,0.193c-0.323,0.129-0.607,0.311-0.849,0.546
					c-0.243,0.235-0.436,0.52-0.579,0.855c-0.143,0.335-0.215,0.708-0.215,1.119c0,0.412,0.072,0.785,0.215,1.12
					c0.143,0.335,0.338,0.62,0.585,0.855c0.246,0.235,0.531,0.418,0.854,0.546c0.324,0.129,0.669,0.193,1.037,0.193
					c0.419,0,0.774-0.061,1.064-0.182c0.29-0.121,0.539-0.278,0.745-0.469c0.147-0.132,0.274-0.3,0.38-0.502
					c0.107-0.202,0.189-0.428,0.248-0.678h-2.482V436.334z"/>
			</g>
			<g>
				<path style="fill:#FFFFFF;" d="M297.3,431.299c-0.006-1.224-0.959-2.121-2.189-2.14c-0.924-0.014-0.832,0.12-0.834-0.867
					c-0.003-1.097-0.007-2.194,0.003-3.292c0.003-0.379-0.112-0.691-0.362-0.976c-2.342-2.668-4.678-5.342-7.019-8.011
					c-0.12-0.137-0.275-0.244-0.414-0.366c-6.214,0-12.427,0-18.641,0c-0.794,0.293-1.14,0.868-1.138,1.709
					c0.01,3.748,0.004,7.496,0.004,11.243c0,0.556-0.003,0.589-0.55,0.551c-1.497-0.102-2.516,0.986-2.497,2.492
					c0.044,3.476,0.013,6.953,0.014,10.429c0.001,1.58,0.867,2.443,2.45,2.449c0.582,0.002,0.582,0.002,0.582,0.6
					c0,2.219-0.001,4.438,0.001,6.657c0.001,1.192,0.58,1.771,1.768,1.771c8.013,0.001,16.027,0.001,24.04,0
					c1.168,0,1.755-0.583,1.757-1.745c0.002-2.256,0-4.512,0.001-6.768c0-0.512,0.002-0.511,0.52-0.515
					c0.271-0.002,0.541,0.008,0.809-0.058c0.996-0.246,1.69-1.044,1.694-2.069C297.315,438.696,297.318,434.997,297.3,431.299z
					 M268.85,417.162c5.337,0,10.674,0,16.01,0c0.548,0,0.554,0.007,0.554,0.561c0.001,2.243-0.001,4.486,0.001,6.73
					c0.001,0.811,0.249,1.059,1.06,1.059c1.91,0.001,3.821,0,5.731,0.001c0.458,0,0.479,0.021,0.481,0.483
					c0.003,0.887,0.002,1.775,0,2.662c-0.001,0.477-0.024,0.498-0.504,0.499c-3.895,0.001-7.79,0-11.684,0
					c-3.882,0-7.765,0-11.647,0c-0.55,0-0.552-0.001-0.552-0.561c-0.001-3.624-0.001-7.247,0-10.871
					C268.299,417.166,268.303,417.162,268.85,417.162z M292.135,451.579c-3.883,0.001-7.766,0-11.65,0c-3.871,0-7.742,0-11.613,0
					c-0.572,0-0.574-0.002-0.574-0.579c-0.001-1.997-0.001-3.994,0.001-5.991c0-0.464,0.023-0.486,0.478-0.487
					c7.803-0.001,15.607-0.001,23.41,0c0.478,0,0.499,0.02,0.499,0.503c0.001,1.997,0.001,3.994,0,5.991
					C292.687,451.574,292.682,451.579,292.135,451.579z"/>
			</g>
			<g>
				<path style="fill:#FFFFFF;" d="M272.966,434.183v1.831h3.165v1.412h-3.165v1.831h3.518v1.412h-5.007v-7.897h5.007v1.412H272.966
					z"/>
				<path style="fill:#FFFFFF;" d="M277.852,440.669v-7.897h2.779c0.375,0,0.726,0.061,1.053,0.182
					c0.327,0.121,0.612,0.292,0.855,0.513c0.243,0.221,0.434,0.483,0.574,0.789c0.14,0.305,0.209,0.642,0.209,1.009
					c0,0.375-0.07,0.715-0.209,1.02c-0.14,0.305-0.331,0.568-0.574,0.789c-0.243,0.221-0.528,0.392-0.855,0.513
					c-0.327,0.121-0.678,0.182-1.053,0.182h-1.29v2.901H277.852z M280.653,436.356c0.389,0,0.684-0.111,0.882-0.331
					c0.199-0.22,0.298-0.474,0.298-0.761c0-0.14-0.024-0.276-0.072-0.408c-0.048-0.132-0.121-0.248-0.221-0.347
					c-0.099-0.099-0.222-0.178-0.37-0.237c-0.147-0.059-0.32-0.089-0.518-0.089h-1.312v2.173H280.653z"/>
				<path style="fill:#FFFFFF;" d="M286.797,440.845c-0.338,0-0.662-0.048-0.971-0.143c-0.309-0.095-0.592-0.239-0.849-0.43
					c-0.257-0.191-0.482-0.425-0.673-0.7c-0.191-0.276-0.342-0.597-0.452-0.965l1.401-0.551c0.103,0.397,0.283,0.726,0.541,0.987
					c0.257,0.261,0.595,0.392,1.015,0.392c0.154,0,0.303-0.02,0.447-0.061c0.143-0.04,0.272-0.099,0.386-0.176
					c0.114-0.077,0.204-0.175,0.27-0.292c0.066-0.118,0.1-0.254,0.1-0.408c0-0.147-0.026-0.279-0.077-0.397
					c-0.051-0.117-0.138-0.227-0.259-0.331c-0.121-0.103-0.279-0.202-0.474-0.298c-0.195-0.095-0.436-0.195-0.723-0.298
					l-0.485-0.176c-0.213-0.073-0.428-0.173-0.645-0.298c-0.217-0.125-0.414-0.276-0.59-0.452c-0.176-0.176-0.322-0.384-0.436-0.623
					c-0.114-0.239-0.171-0.509-0.171-0.81c0-0.309,0.061-0.597,0.182-0.866c0.121-0.268,0.294-0.503,0.518-0.706
					c0.224-0.202,0.493-0.36,0.805-0.474c0.312-0.114,0.66-0.171,1.042-0.171c0.397,0,0.741,0.053,1.031,0.16
					c0.29,0.107,0.537,0.243,0.739,0.408c0.202,0.165,0.365,0.348,0.491,0.546c0.125,0.199,0.217,0.386,0.276,0.563l-1.312,0.551
					c-0.074-0.221-0.208-0.419-0.403-0.596c-0.195-0.176-0.462-0.265-0.799-0.265c-0.324,0-0.592,0.075-0.805,0.226
					c-0.213,0.151-0.32,0.348-0.32,0.59c0,0.235,0.103,0.436,0.309,0.601c0.206,0.165,0.533,0.325,0.982,0.48l0.496,0.165
					c0.316,0.111,0.605,0.237,0.866,0.381c0.261,0.143,0.485,0.314,0.673,0.513c0.187,0.199,0.331,0.425,0.43,0.678
					c0.099,0.254,0.149,0.546,0.149,0.877c0,0.412-0.083,0.767-0.248,1.064c-0.165,0.298-0.377,0.542-0.634,0.734
					c-0.258,0.191-0.548,0.335-0.872,0.43C287.422,440.797,287.105,440.845,286.797,440.845z"/>
			</g>
			<g>
				<path style="fill:#FFFFFF;" d="M321.394,439.168l4.004-4.985h-3.827v-1.412h5.559v1.5l-3.96,4.985h4.004v1.412h-5.779V439.168z"
					/>
				<path style="fill:#FFFFFF;" d="M328.409,432.771h1.489v7.897h-1.489V432.771z"/>
				<path style="fill:#FFFFFF;" d="M331.486,440.669v-7.897h2.779c0.375,0,0.726,0.061,1.053,0.182
					c0.327,0.121,0.612,0.292,0.855,0.513s0.434,0.483,0.574,0.789c0.14,0.305,0.209,0.642,0.209,1.009
					c0,0.375-0.07,0.715-0.209,1.02c-0.14,0.305-0.331,0.568-0.574,0.789c-0.243,0.221-0.528,0.392-0.855,0.513
					c-0.327,0.121-0.678,0.182-1.053,0.182h-1.29v2.901H331.486z M334.288,436.356c0.389,0,0.684-0.111,0.882-0.331
					c0.199-0.22,0.298-0.474,0.298-0.761c0-0.14-0.024-0.276-0.072-0.408c-0.048-0.132-0.121-0.248-0.221-0.347
					c-0.099-0.099-0.222-0.178-0.37-0.237c-0.147-0.059-0.32-0.089-0.518-0.089h-1.312v2.173H334.288z"/>
			</g>
		</g>
		<g style="opacity:0.61;">
			<path style="fill:#FFFFFF;" d="M300.133,433.27h9.067v2.242h-9.067V433.27z M300.133,437.136h9.067v2.243h-9.067V437.136z"/>
		</g>
	</g>
	<g style="opacity:0.61;">
		<path style="fill:#FFFFFF;" d="M156.756,478.878h1.607c1.263,0,2.114,0.812,2.114,1.974c0,1.161-0.851,1.973-2.114,1.973h-1.607
			V478.878z M158.34,482.464c1.049,0,1.725-0.665,1.725-1.612c0-0.947-0.677-1.613-1.725-1.613h-1.167v3.225H158.34z"/>
		<path style="fill:#FFFFFF;" d="M165.139,480.851c0-1.15,0.879-2.007,2.075-2.007c1.184,0,2.069,0.851,2.069,2.007
			c0,1.156-0.885,2.007-2.069,2.007C166.019,482.858,165.139,482.002,165.139,480.851z M168.866,480.851
			c0-0.942-0.705-1.635-1.652-1.635c-0.953,0-1.663,0.693-1.663,1.635c0,0.941,0.71,1.635,1.663,1.635
			C168.162,482.486,168.866,481.793,168.866,480.851z"/>
		<path style="fill:#FFFFFF;" d="M179.596,478.878l-1.331,3.947h-0.44l-1.156-3.366l-1.161,3.366h-0.434l-1.331-3.947h0.429
			l1.139,3.394l1.178-3.394h0.389l1.161,3.411l1.156-3.411H179.596z"/>
		<path style="fill:#FFFFFF;" d="M187.731,478.878v3.947h-0.344l-2.537-3.202v3.202h-0.417v-3.947h0.344l2.543,3.203v-3.203H187.731
			z"/>
		<path style="fill:#FFFFFF;" d="M193.093,478.878h0.417v3.586h2.21v0.361h-2.627V478.878z"/>
		<path style="fill:#FFFFFF;" d="M200.061,480.851c0-1.15,0.879-2.007,2.075-2.007c1.184,0,2.069,0.851,2.069,2.007
			c0,1.156-0.885,2.007-2.069,2.007C200.941,482.858,200.061,482.002,200.061,480.851z M203.788,480.851
			c0-0.942-0.705-1.635-1.652-1.635c-0.953,0-1.663,0.693-1.663,1.635c0,0.941,0.71,1.635,1.663,1.635
			C203.083,482.486,203.788,481.793,203.788,480.851z"/>
		<path style="fill:#FFFFFF;" d="M211.636,481.77h-2.199l-0.474,1.054h-0.434l1.804-3.947h0.412l1.804,3.947h-0.44L211.636,481.77z
			 M211.484,481.432l-0.947-2.12l-0.947,2.12H211.484z"/>
		<path style="fill:#FFFFFF;" d="M217.28,478.878h1.607c1.263,0,2.114,0.812,2.114,1.974c0,1.161-0.851,1.973-2.114,1.973h-1.607
			V478.878z M218.864,482.464c1.049,0,1.725-0.665,1.725-1.612c0-0.947-0.677-1.613-1.725-1.613h-1.167v3.225H218.864z"/>
		<path style="fill:#FFFFFF;" d="M234.041,481.77h-2.199l-0.474,1.054h-0.434l1.804-3.947h0.412l1.804,3.947h-0.44L234.041,481.77z
			 M233.889,481.432l-0.947-2.12l-0.947,2.12H233.889z"/>
		<path style="fill:#FFFFFF;" d="M239.685,478.878h0.417v3.586h2.21v0.361h-2.627V478.878z"/>
		<path style="fill:#FFFFFF;" d="M247.082,478.878h0.417v3.586h2.21v0.361h-2.627V478.878z"/>
		<path style="fill:#FFFFFF;" d="M260.449,479.239v1.551h2.041v0.361h-2.041v1.675h-0.417v-3.947h2.706v0.361H260.449z"/>
		<path style="fill:#FFFFFF;" d="M267.678,478.878h0.417v3.947h-0.417V478.878z"/>
		<path style="fill:#FFFFFF;" d="M273.456,478.878h0.417v3.586h2.21v0.361h-2.627V478.878z"/>
		<path style="fill:#FFFFFF;" d="M283.644,482.464v0.361h-2.791v-3.947h2.706v0.361h-2.289v1.404h2.041v0.355h-2.041v1.466H283.644z
			"/>
		<path style="fill:#FFFFFF;" d="M294.672,479.239v1.551h2.041v0.361h-2.041v1.675h-0.417v-3.947h2.706v0.361H294.672z"/>
		<path style="fill:#FFFFFF;" d="M301.5,480.851c0-1.15,0.879-2.007,2.075-2.007c1.184,0,2.069,0.851,2.069,2.007
			c0,1.156-0.885,2.007-2.069,2.007C302.379,482.858,301.5,482.002,301.5,480.851z M305.226,480.851
			c0-0.942-0.705-1.635-1.652-1.635c-0.953,0-1.663,0.693-1.663,1.635c0,0.941,0.71,1.635,1.663,1.635
			C304.522,482.486,305.226,481.793,305.226,480.851z"/>
		<path style="fill:#FFFFFF;" d="M313.351,482.825l-0.902-1.269c-0.102,0.011-0.203,0.017-0.316,0.017h-1.06v1.252h-0.417v-3.947
			h1.477c1.004,0,1.613,0.507,1.613,1.353c0,0.62-0.327,1.054-0.902,1.24l0.964,1.353H313.351z M313.328,480.231
			c0-0.632-0.417-0.992-1.207-0.992h-1.048v1.979h1.048C312.911,481.218,313.328,480.851,313.328,480.231z"/>
		<path style="fill:#FFFFFF;" d="M322.907,478.878v3.947h-0.4v-3.158l-1.551,2.656h-0.197l-1.551-2.639v3.14h-0.4v-3.947h0.344
			l1.714,2.926l1.697-2.926H322.907z"/>
		<path style="fill:#FFFFFF;" d="M330.744,481.77h-2.199l-0.473,1.054h-0.434l1.804-3.947h0.411l1.804,3.947h-0.44L330.744,481.77z
			 M330.592,481.432l-0.947-2.12l-0.947,2.12H330.592z"/>
		<path style="fill:#FFFFFF;" d="M336.957,479.239h-1.387v-0.361h3.192v0.361h-1.387v3.586h-0.417V479.239z"/>
		<path style="fill:#FFFFFF;" d="M343.063,482.346l0.164-0.321c0.282,0.276,0.784,0.479,1.302,0.479c0.739,0,1.06-0.31,1.06-0.699
			c0-1.083-2.43-0.417-2.43-1.877c0-0.581,0.451-1.083,1.455-1.083c0.446,0,0.908,0.13,1.224,0.35l-0.141,0.333
			c-0.338-0.22-0.733-0.327-1.083-0.327c-0.722,0-1.043,0.321-1.043,0.716c0,1.083,2.43,0.429,2.43,1.866
			c0,0.581-0.462,1.077-1.472,1.077C343.937,482.858,343.356,482.65,343.063,482.346z"/>
	</g>
</g>
<g>
</g>
<g>
	<path style="fill:#009D53;" d="M308.035,225.438c26.111-28.545,28.784-57.997,28.784-58.893
		c-5.395-2.673-35.09,16.065-35.09,16.065c3.596-17.838-4.497-41.043-4.497-41.94c-19.817,8.034-27.909,29.441-29.708,27.673
		c-3.608-16.963-11.713-35.703-13.512-35.703c-8.101,15.178-14.401,37.471-14.401,37.471
		c-14.417-26.768-31.494-28.544-31.494-28.544c-2.722,13.385-0.924,41.926-1.811,41.043c-24.313-16.948-34.222-15.168-34.222-16.065
		c-4.502,22.321,27.915,61.565,27.01,59.779c-48.608-21.412-72.921-17.834-72.921-17.834c34.204,41.925,80.133,63.344,80.133,62.459
		c22.509,5.352,32.405-2.68,32.405-2.68c16.212,22.3,27.914,0,27.914,0c15.284,7.139,32.392,4.466,32.392,2.68
		c48.615-18.746,81.957-64.242,81.957-64.242C364.753,202.242,308.035,225.438,308.035,225.438z M237.82,173.691
		c0,0-3.603,13.385-4.514,21.413c0,0-14.41-19.621-20.704-47.287C212.602,147.817,227.912,153.159,237.82,173.691z M180.196,172.792
		c0,0.899,39.605,17.856,50.419,33.914c0,0.877-1.811,22.297-1.811,22.297S187.396,195.997,180.196,172.792z M231.501,259.351
		c0,0-49.507-16.076-82.799-43.737c0,0,54.902,10.71,82.799,30.349C231.501,246.85,231.501,259.351,231.501,259.351z
		 M253.102,275.407c-44.108-21.413-1.776-124.028-1.776-124.921C254.926,195.104,253.102,275.407,253.102,275.407z M326.941,173.691
		c-33.316,50.863-52.234,57.098-52.234,57.098v-23.205C309.833,176.355,327.841,173.691,326.941,173.691z M292.738,149.596
		c0,1.783-5.407,29.435-19.817,47.291c0,0.899-1.799-14.278-4.497-22.303C268.424,174.584,281.936,150.486,292.738,149.596z
		 M272.921,260.244c-0.901-9.816,0.91-14.281,0.91-14.281c53.11-27.663,83.73-31.229,82.806-31.229
		C335.045,236.146,272.921,261.125,272.921,260.244z"/>
	<g>
		<path style="fill:#231F20;" d="M131.57,279.866c0,0,13.518-7.131,22.527-0.887c0,0.887,9.897,10.703,18.895-1.799
			c0,0,8.098-2.673,22.508,0c0,0.901,15.31,13.389,28.816,0c0,0.901,12.594-3.566,16.196,0c0,0,13.502,16.966,30.61-0.879
			c-0.899,0.879,18.894-4.466,25.199,3.566c0,0,14.412,1.786,22.517-4.459c0,0,10.801-2.673,20.704,2.673
			c-0.887,0.899,29.694,4.464,36.025-0.901v5.365c0,0-29.733,8.923-36.912,2.667c0,0.904-14.41-8.911-33.329,0.904
			c0,0-5.395,0.893-8.093,0c0,0-17.12-10.722-32.406,1.78c0,0-10.814,2.673-18.915,1.786c0,0-11.695-13.381-26.111-2.673
			c0,0-12.606,4.459-22.497,0c0,0-12.606-10.709-28.809,0.887c0.899,0.899-10.796,4.459-17.108-2.684
			c0,0.904-7.199-5.334-18.9-0.887C131.57,284.324,131.57,279.866,131.57,279.866z"/>
		<path style="fill:#231F20;" d="M139.674,295.914c0,0,4.514-1.769,10.814,0.904c0,0,11.701,7.126,23.409-2.673
			c0,0.893,18.887-2.679,21.603,0.893c-0.905,0.876,19.818,11.59,29.696-3.571c0,0,16.215-2.673,18.026,0.887
			c0,0.893,15.287,16.068,31.485,0c0.924,0.893,14.422-3.56,18.919,0c0,0,12.611,16.96,27.909,0c0,0.893,12.613-1.786,17.122,0.893
			c0,0.899,7.179,8.024,32.405,2.667c0,0.904,0,6.269,0,6.269h-30.62c0,0-10.802-11.615-25.213,0.887
			c0,0.874-12.6,6.244-21.603-2.686c0,0-10.814-8.03-26.1,3.56c-0.899,0-14.424,5.371-24.304-4.439
			c0,0.88-13.512-6.258-24.308,4.439c0,0.912-12.606,2.684-21.61-1.761c0,0.887-17.108-8.931-27.011,0.887
			C171.186,303.944,144.188,309.315,139.674,295.914z"/>
		<path style="fill:#231F20;" d="M159.498,320.018v-5.357l10.796,0.899c0,0,5.401,12.502,19.806,0.887c0,0.899,9.89-6.244,19.799,0
			c0,0,11.701,13.387,22.521-1.786c0,1.786,17.09-1.786,23.393,0c0,0.899,14.41,12.489,22.515-0.887c0,0,15.309-8.917,25.224,2.673
			c0,0.899,10.789,9.822,26.985-5.357c0,0,18.896-5.346,25.201,10.714l-3.585,3.566c0,0-18.007-17.846-31.518,0
			c0,0-14.399,1.78-17.083-1.786c0,0.906-17.12-12.494-29.721,1.786c0,0-11.713,1.78-16.196-0.88c0,0-16.224-10.716-28.83,0.88
			c0.905,0.899-14.405,6.252-21.61-2.684c0,0-14.411-4.459-18.895,2.684c0,0-17.114,5.365-18.906-3.566
			C169.394,321.804,159.498,325.369,159.498,320.018z"/>
		<path style="fill:#231F20;" d="M189.194,342.324c0,0,7.186,1.786,9.902-2.673c0.905,0.899,15.304-6.244,20.705,0.899
			c0,0,15.303,9.804,18.019-2.684c0,0,18.902-1.793,19.815,0.887c0,0,15.286,11.601,24.301-2.681c-0.912,0,8.08-3.566,17.083,0.906
			c0,0,17.122,7.131,22.515-2.684c0,0.893,12.613-5.359,16.209-0.901l-0.924,4.472c0,0-9.879-1.793-19.781,7.143
			c0,0-13.487,4.459-19.806-1.792c0,0-14.422-4.464-18.905,4.478h-18.009c0,0-14.407-8.044-22.499,0c0,0-12.624,4.445-18.906,0
			c0,0.874-8.998-9.829-18.008,0.874c-0.905,0.887-11.713,0-11.713,0V342.324z"/>
		<path style="fill:#231F20;" d="M219.801,361.064c0,0,15.291-5.353,25.212,0c0,0.893,20.702,2.684,25.21-2.667
			c0.899,0.874,21.603,0,21.603,0l-0.912,6.233H272.02c0,0-14.385,10.709-30.609,0.893c0,0-18.002-2.667-20.699-0.893
			L219.801,361.064z"/>
	</g>
	<path style="fill:none;stroke:#231F20;stroke-width:2;" d="M398.354,250.009c0,81.193-66.461,147.019-148.365,147.019
		c-81.932,0-148.343-65.827-148.343-147.019c0-81.207,66.412-147.031,148.343-147.031
		C331.894,102.978,398.354,168.801,398.354,250.009z"/>
	<path style="fill:none;stroke:#231F20;stroke-width:2;" d="M477.022,250.009C477.022,374.262,375.358,475,249.989,475
		C124.604,475,22.978,374.262,22.978,250.009C22.978,125.749,124.604,25,249.989,25C375.358,25,477.022,125.749,477.022,250.009z"/>
	<g>
		<g>
			<g>
				<path style="fill:#E73530;" d="M116.737,359.696c-0.563-2.753-1.361-5.443-3.073-7.618c-2.103-2.832-4.428-4.736-7.015-5.788
					c-1.324-0.542-2.885-0.937-4.695-1.195c-2.183-0.307-3.692-0.228-4.493,0.284c-0.668,0.431-1.032,1.132-1.086,2.131
					c-0.053,0.993,0.221,1.91,0.819,2.723c0.27,0.37,0.889,0.923,1.853,1.638c0.964,0.715,1.627,1.28,1.983,1.711
					c0.626,0.789,0.311,1.638-0.939,2.539c-0.449,0.331-0.859,0.406-1.225,0.24l-5.469-1.46l2.744,7.513
					c5.422,1.418,10.149,3.112,15.741,3.782c0.12,0.826-0.003,1.786-0.363,2.912c-0.203,0.648-0.567,1.546-1.072,2.679l-11.99,9.904
					c0.324,3.14,0.822,5.727,1.445,7.722l22.441-21.183l4.652,4.976l-0.427-6.8l-0.841-1.243l-0.314-0.856
					c0.003-0.517,0.32-1.127,0.955-1.841l0.153-0.615l-0.68-4.016l-7.886,7.649l-1.426,1.688
					C117.208,364.716,117.279,362.227,116.737,359.696z M104.858,351.967c2.158,0.197,4.119,1.502,5.909,3.966
					c0.794,1.096,1.225,2.5,1.317,4.25l-7.861-2.027C105.735,356.131,105.951,354.067,104.858,351.967z"/>
				<path style="fill:#E73530;" d="M156.538,396.246l-2.245-6.737c-10.786-7.292-21.055-15.656-29.684-25.466l0.577,7.137
					c5.983,6.984,13.813,11.998,20.59,18.137l-2.639,3.591l-0.12-0.332l-0.167-1.874c-0.329-1.268-1.086-2.476-2.275-3.633
					c-1.232-1.182-3.021-1.491-5.429-0.979l-0.092-0.462c-0.551-2.795-1.875-5.02-4.055-6.725c-2.189-1.627-4.392-2.445-6.882-2.297
					c-2.204,0.142-4.154,1.016-5.808,2.667c-1.908,1.908-2.694,4.236-2.296,7.057c0.292,2.92,2.115,5.315,4.886,7.674
					c2.63,2.192,5.127,2.859,7.433,1.947c0.798-0.314,1.383-1.374,1.78-3.154c0.53-2.18-0.086-4.002-1.878-5.493
					c-1.093-0.912-2.285-1.404-3.591-1.483c-1.303-0.08-2.338,0.276-3.089,1.088l-0.644,0.937c-0.819-1.36-0.751-2.525,0.216-3.547
					c0.856-0.912,2.063-1.332,3.575-1.257c1.512,0.075,2.876,0.615,4.111,1.638c1.466,1.219,2.368,2.587,2.725,4.125
					c0.108,0.506,0.136,1.454,0.099,2.87c-0.024,0.751-0.53,1.33-1.53,1.738l4.215,1.792c0.9-1.805,1.669-2.778,2.297-2.932
					c0.662-0.178,1.265-0.042,1.816,0.42c0.672,0.56,1.131,1.391,1.389,2.506c0.259,1.113,0.193,1.945-0.203,2.487l-9.912,13.487
					l2.762,6.984l17.848-25.902L156.538,396.246z"/>
				<path style="fill:#E73530;" d="M154.608,389.793c-0.872-0.556-2.356-1.368-4.471-2.439l2.09,6.214l1.029,0.659
					c1.09,0.701,1.9,1.632,2.445,2.801c0.542,1.176,0.674,2.28,0.385,3.315c-0.022,0.22-0.218,0.732-0.591,1.52l-11.736,19.177
					l2.852,7.367l16.064-28.114c1.996,1.46,4.382,2.223,6.55,3.368l-2.682-6.208l-2.004-1.263l-0.256-1.09l0.905-3.324l-1.426-3.412
					c-1.699,2.778-2.984,5.087-3.84,6.947l-0.428,0.929C159.175,393.832,157.567,391.69,154.608,389.793z"/>
				<path style="fill:#E73530;" d="M185.966,421.12c0.449-1.224,0.296-2.531-0.437-3.897c-0.274-0.506-1.136-1.688-2.523-3.524
					c0.745-0.542,1.787-0.659,3.122-0.345c1.047,0.264,1.98,1.416,2.867,3.474c0.883,2.056,1.21,3.535,0.911,4.392l-6.469,17.631
					l4.825,6.342l9.293-29.892l6.876,2.303l-3.751-5.919c-1.367-0.623-2.112-1.188-2.245-1.694
					c-0.035,0.117,0.018-0.056,0.163-0.512l-0.077-1.976c-0.53-0.973-1.383-2.303-2.516-3.985l-2.073,6.99l-1.352,5.986l-0.16-0.671
					c-1.915-5.254-3.516-8.086-5.173-8.628c-0.27-0.086-0.893-0.167-1.872-0.259c-3.026-0.653-5.573-0.37-7.654,0.837
					c-0.662-1.927-1.201-3.343-1.66-4.261c-0.951-1.416-2.22-2.501-3.83-3.277c-2.78-1.416-5.761-2.47-8.29-4.336l2.473,6.51
					c4.034,1.841,5.226,2.359,3.591,1.544c1.197,0.617,2.097,1.393,2.71,2.347l0.576,1.995c-1.207,0.13-2.026,0.228-2.442,0.289
					c-3.058,0.389-5.12,1.496-6.091,3.368l-0.397,1.263c-0.314,2.495,0.8,4.355,3.298,5.549c2.26,1.079,4.57,1.134,6.863,0.124
					c0.801,2.136,2.233,3.713,4.259,4.656l3.298,0.443c1.207-0.036,2.094-0.314,2.67-0.832l-0.281,0.092L185.966,421.12z"/>
				<path style="fill:#E73530;" d="M205.058,449.147c-0.216,0.973-1.299,1.866-3.298,2.679l-4.985,1.299l0.926,2.734
					c3.052-0.148,5.881-0.874,8.45-2.186c2.886-1.41,4.462-3.085,4.828-4.987c0.351-1.83,0.037-3.443-0.908-4.84
					c-1.078-1.585-2.79-2.606-5.18-3.081c-3.815-0.757-6.093,0.253-6.832,3.037c-0.56,2.106,0.921,3.652,4.468,4.642
					c1.355,0.161,2.201,0.247,2.543,0.284l0.249,0.05C205.236,448.599,205.15,448.722,205.058,449.147z"/>
				<path style="fill:#E73530;" d="M256.353,435.352c1.763,0.998,3.031,2.027,3.776,3.092c3.355,4.742,5.338,8.75,5.591,12.063
					l0.069,0.943l3.978,3.251l-3.048-32.319c2.506-0.234,5.062-0.136,7.538-0.64c-2.025-1.01-4.095-2.623-6.066-3.916
					c-11.985,1.268-23.953,1.33-35.928,0.031l4.955,4.778c8.034,0.793,16.065,1.004,24.095,0.092l0.776,12.144l-0.167-0.172
					c-4.47-4.587-8.597-6.551-12.85-6.514c-2.722-0.178-5.055,0.406-7.073,1.742c-2.014,1.337-3.122,3.092-3.251,5.267
					c-0.262,4.114,2.445,6.355,8.13,6.706c4.296,0.425,6.411-1.705,6.35-4.723c-0.019-1.109-0.604-2.267-1.722-3.474
					C252.985,433.813,254.592,434.354,256.353,435.352z"/>
				<path style="fill:#E73530;" d="M303.41,414.895l-6.486-2.539c-10.664,2.397-21.394,5.482-32.428,5.704l5.93,4.094
					c7.156-0.726,14.152-2.611,21.241-3.824l0.172,0.696c-6.646,3.087-13.261,8.135-20.57,13.125l6.627,5.394
					c3.177-0.454,6.317-0.357,9.502,0.272c3.184,0.628,5.882,1.711,8.086,3.251l5.679,4.742l4.014,1.28l-8.264-30.028
					L303.41,414.895z M290.866,445.515c0.793-0.948,1.082-1.905,0.874-2.87c-0.215-1.01-0.935-1.78-2.142-2.311
					c-1.207-0.529-2.489-0.665-3.855-0.4c-1.318,0.261-2.366,0.851-3.167,1.774c-0.807,0.918-1.132,1.872-0.985,2.845
					c0.161,1.023,0.845,1.811,2.058,2.364c1.219,0.556,2.543,0.69,3.966,0.408C288.981,447.066,290.065,446.455,290.866,445.515z
					 M296.237,437.199c-4.25-2.782-8.802-4.581-13.734-5.357c3.707-2.981,7.237-5.326,10.728-7.057L296.237,437.199z"/>
				<path style="fill:#E73530;" d="M334.725,396.21l-3.621-2.92c-3.596-0.935-6.194-1.483-7.932-1.575
					c-5.788-0.364-10.4,0.406-14.311,2.217c-1.565,0.498-2.889,1.244-4.004,2.228c-1.588,1.441-2.765,2.734-3.497,3.88
					c-0.734,1.14-1.418,2.759-2.083,4.865c-0.27,0.807-0.22,1.811,0.148,3.031c0.272,0.874,1.343,1.711,3.265,2.493l-8.672,2.901
					l6.221,2.617l4.464-1.483l8.314,25.483l7.52,2.069l-10.594-29.29l7.083-2.487c-2.169-0.542-4.483-1.565-6.652-2.353
					l-3.343,1.102l-1.663-1.577c-0.192-0.27,0.025-1.157,0.609-2.648c0.506-1.163,0.948-2.075,1.324-2.746l1.14-1.374
					c1.157-1.355,2.926-2.364,5.118-3.571c3.677-1.786,7.415-2.364,11.393-1.847C328.117,395.57,331.56,396.229,334.725,396.21z"/>
				<path style="fill:#E73530;" d="M349.358,392.539l-6.965-0.831c-10.852,7.44-23.015,13-35.392,17.294l6.035,2.192l0.965,0.117
					l1.017,0.604c1.194,0.812,2.918,0.64,5.185-0.387c2.55-1.098,4.261-1.584,5.129-1.473c1.682,0.247,3.16,1.324,4.411,3.228
					l-1.36,4.273c-0.611,1.872-1.215,2.951-1.774,3.215c-0.703,0.339-1.607,0.025-2.692-0.948l-1.853-2.205l-2.784,4.884
					c4.163,2.999,7.001,3.874,8.616,3.579c0.812,0.012,1.995-0.358,3.541-1.098l1.422-0.738c1.276-0.79,2.895-4.434,4.416-10.716
					c0.345-1.435,1.035-2.401,2.087-2.907l2.767-0.443c1.107,0.042,1.933,0.264,2.462,0.676l6.928,11.954l7.944,0.979
					l-16.755-26.979L349.358,392.539z M326.757,405.57c3.78-1.989,7.902-3.349,11.406-5.838l3.799,6.572
					c-3.338-0.696-5.802-0.929-7.31-0.239c-0.801,0.381-1.54,1.169-2.242,2.389l-0.487,0.824
					C330.79,407.146,329.048,405.922,326.757,405.57z"/>
				<path style="fill:#E73530;" d="M364.895,386.848c-1.286-1.552-3.11-2.376-5.413-2.493c-2.303-0.117-4.347,0.573-6.194,2.117
					c-1.755,1.51-3.142,3.031-3.677,5.321c-0.586,2.23-0.364,4.169,0.72,5.783c1.121,1.688,2.901,2.656,5.394,2.87
					c2.433,0.136,4.995-0.234,6.947-2c1.065-0.881,1.799-1.621,2.192-2.205c0.579-0.843,1.01-2.075,1.282-3.688
					C366.541,390.205,366.11,388.32,364.895,386.848z M389.702,404.868l-2.999-3.374c-9.632-0.094-15.439-0.358-18.076-0.18
					c-4.545,0.376-8.831,0.376-12.644,0.439l4.915,7.143c9.99-0.739,16.259-2.882,20.404-3.054L389.702,404.868z M359.691,389.207
					l0.826,1.546c0.136,0.659-0.086,1.652-0.69,2.993c-0.604,1.337-1.182,2.317-1.884,2.698c-0.667,0.431-1.282,0.259-1.83-0.511
					c-0.807-1.121-1.004-2.236-0.598-3.332c0.726-2.117,1.416-3.547,2.328-4.008C358.498,388.253,359.112,388.462,359.691,389.207z"
					/>
				<path style="fill:#E73530;" d="M370.518,375.85c6.17-7.156,13.623-13.241,18.796-21.222l-6.725,1.675
					c-8.069,9.034-16.296,17.976-26.008,25.31l7.064-0.073l2.456-2.039l10.944,12.433l8.616-0.504
					c-1.841-6.369-1.418-12.491,1.341-18.426c1.207,1.953,2.569,3.652,4.108,5.074c2.044,1.88,5.746,4.177,11.27,6.725l4.878-2.611
					l-1.054-0.56c-3.602-1.958-5.524-3.098-5.827-3.351l-2.061-1.458c-3.277-2.853-5.457-7.281-7.354-13.377l-8.406,2.6
					c-2.217,4.717-3.566,8.449-3.974,11.078l-0.787,4.914l-0.247,1.288L370.518,375.85z"/>
				<path style="fill:#E73530;" d="M398.059,342.68l-6.886,1.841l-1.872,2.556l-2.242-0.665c-1.558-0.492-3.282-0.72-5.148-0.709
					c-3.313-0.042-6.442,0.734-9.392,2.336c-3.06,1.514-6.058,3.269-8.436,5.9l-1.318,1.749c-2.297,3.355-3.466,6.478-4.008,8.842
					c-0.259,1.134,0.086,2.23,1.046,3.288c1.096,1.207,2.845,1.688,5.037,1.146c1.627-0.473,3.301-1.428,5.014-2.857
					c2.044-2.008,3.46-3.412,4.25-4.188c2.217-2.179,3.658-2.979,4.322-2.401c0.295,0.259,0.253,1.675-0.186,4.292l4.867-5.154
					l-1.638-1.916c-1.073-0.893-2.422-1.36-3.98-1.385c-1.552-0.025-3.018,0.37-4.397,1.195c-1.138,0.682-2.487,1.797-4.052,3.343
					l-3.313,3.455c-1.897,1.853-3.004,2.611-3.338,2.253c-0.473-0.492-0.037-1.811,1.307-3.897c0.971-1.521,1.889-2.74,2.759-3.665
					c2.709-2.943,5.9-5.024,9.318-6.65c1.261-0.74,2.759-1.146,4.489-1.232c2.487-0.117,4.162-0.048,4.962,0.272l1.257,0.504
					c-2.019,2.575-3.646,5.488-5.986,7.796l7.009-1.613l2.351-3.238l21.592,16.369l7.373-2.433l-25.774-18.302L398.059,342.68z"/>
			</g>
		</g>
	</g>
	<g>
		<g>
			<g>
				<path style="fill:#009D53;" d="M78.542,154.561l-6.398,1.854L60.557,181.87l6.297-2.494l1.635-3.618l20.565,8.56
					c1.047,0.438,2.461,0.521,4.229,0.286c2.115-0.28,3.43-0.988,3.972-2.177c1.256-2.753-0.136-6.809-3.936-12.628
					c-1.656-2.541-3.624-4.48-5.949-5.734c-1.992-1.078-3.858-0.973-5.62,0.357c-2.014,1.986-3.534,3.504-4.548,4.507
					c-1.734,1.577-3.667,2.531-5.801,2.864l-0.068,0.302l-0.172-0.077l-0.231-0.102l-0.579-0.259
					C73.095,165.969,75.337,159.993,78.542,154.561z M86.001,169.836c1.352,0.675,2.475,1.906,3.387,3.652
					c1.995,3.822,2.801,6.147,2.327,7.187c-0.117,0.262-0.462,0.262-1.04,0.007l-14.042-6.233c1.922-0.471,3.958-1.346,6.101-2.605
					c1.142-0.89,2.017-1.638,2.623-2.266L86.001,169.836z"/>
				<path style="fill:#009D53;" d="M92.673,133.015l-6.408,1.133c-5.068,8.258-11.301,15.876-15.273,24.754l6.158-2.082
					l9.894-15.267l0.625,0.425c-1.567,6.211-2.208,12.966-1.296,20.184l7.969-0.42c1.386-1.798,3.206-3.236,5.442-4.264
					c2.229-1.029,4.52-1.457,6.869-1.293l6.562,1.121l3.171-0.382l-26.868-19.127L92.673,133.015z M107.887,161.153
					c-0.36-0.945-0.979-1.705-1.862-2.278c-0.918-0.595-1.904-0.813-2.969-0.65c-1.062,0.163-1.854,0.64-2.364,1.416
					c-0.49,0.745-0.567,1.589-0.225,2.519c0.345,0.93,0.97,1.657,1.876,2.193c0.939,0.557,1.955,0.754,3.036,0.604
					c1.084-0.151,1.862-0.588,2.349-1.331C108.196,162.917,108.247,162.095,107.887,161.153z M104.1,153.113
					c-4.428-0.139-8.4,0.822-11.868,2.823c-0.313-3.809-0.079-7.312,0.656-10.423L104.1,153.113z"/>
				<path style="fill:#009D53;" d="M109.497,106.297l-4.299-2.18c-3.442,0.053-6.013,0.36-7.639,0.84
					c-5.407,1.602-9.693,4.173-12.637,7.489c-1.121,1.26-1.909,2.624-2.356,4.08c-0.631,2.103-0.924,3.819-0.903,5.155
					c-0.024,1.302,0.567,3.174,1.377,5.278c0.311,0.819,1.007,1.626,2.082,2.427c0.773,0.579,2.131,0.693,4.043,0.381l-4.456,6.731
					l6.362-1.056l2.189-3.314l22.537,17.262l6.191-0.092l-25.708-20.665l4.187-4.692l-6.688,0.394l-2.06,2.322l-2.303-0.628
					c-0.321-0.145-0.674-0.976-1.05-2.516l-0.466-2.993l0.203-1.747c0.219-1.764,1.146-3.566,2.766-5.375
					c2.658-2.975,5.915-4.866,9.665-5.564L109.497,106.297z"/>
				<path style="fill:#009D53;" d="M122.495,102.078l-6.642-0.634c-9.308,7.039-16.03,16.797-24.076,25.148l6.072-0.523l0.822-0.265
					l1.121,0.151c1.321,0.215,2.682-0.403,4.102-1.863c1.61-1.61,2.801-2.463,3.571-2.565c1.518-0.17,3.227,0.487,5.136,1.958
					l1.022,4.077c0.466,1.761,0.557,2.793,0.259,3.125c-0.373,0.419-1.244,0.32-2.62-0.284l-2.648-1.481l0.514,4.804
					c4.735,1.324,7.541,1.783,8.55,1.219c0.623-0.129,1.321-0.622,2.094-1.484l0.677-0.853c0.56-0.875-0.145-4.207-1.836-10.288
					c-0.384-1.388-0.274-2.423,0.314-3.079c0.41-0.452,1.084-0.708,2.02-0.748l2.384,0.561l10.087,10.614l6.618,1.567
					l-22.639-24.932L122.495,102.078z M106.594,117.111l7.351-7.935l5.558,5.851c-3.316-0.631-5.225-0.157-6.165,0.794
					c-0.477,0.527-0.742,1.432-0.788,2.701l-0.037,0.865C110.646,117.631,108.682,116.861,106.594,117.111z"/>
				<path style="fill:#009D53;" d="M136.333,104.305c0.24,0.074,0.954,0.277,2.128,0.616l1.241,1.099l0.265,0.355l0.458,0.604
					l1.454,1.663l5.705,1.403l-13.135-18.773l-0.124,1.068l1.909-1.488l-6.457-0.893l-16.554,13.675l6.608,0.653l11.445-9.447
					l3.984,5.287c-2.811-0.811-5.096-0.493-6.78,0.896c-1.414,1.167-2.147,2.663-2.168,4.458c-0.022,1.798,0.628,3.439,1.918,4.942
					c1.987,2.303,4.105,2.521,6.359,0.662c0.868-0.718,1.388-1.654,1.576-2.824c0.185-1.164-0.089-2.235-0.84-3.202l-1.124-0.875
					C134.649,104.033,135.363,104.071,136.333,104.305z"/>
				<path style="fill:#009D53;" d="M135.184,91.637l20.428-12.434l-6.368-1.702c-9.272,5.361-18.447,10.854-26.367,18.13
					l6.577,0.708l2.057-1.691l10.559,14.057l6.749,1.506c-1.921-6.122-1.311-11.187,1.54-15.498l2.951,6.239
					c1.58,2.482,4.557,5.986,8.772,10.614l3.732-0.031l-0.788-1.007c-2.612-3.325-4.052-5.151-4.268-5.511l-1.512-2.175
					c-2.347-3.873-3.899-8.862-4.336-15.153l-7.56-0.964c-2.63,3.588-4.166,6.451-4.705,8.632l-0.943,4.024l-0.181,1.127
					L135.184,91.637z"/>
				<path style="fill:#009D53;" d="M169.422,110.971c-0.797-0.403-1.841-0.755-3.14-1.05l-0.662-0.924l-0.542-0.927
					c-0.526-0.758-1.355-1.534-2.506-2.315c-1.293-0.887-2.239-1.154-2.812-0.813l-0.376,0.894c0.289,0.468,1.09,1.644,2.389,3.531
					c-1.573-0.123-2.823,0.089-3.719,0.625c-1.377,0.819-2.175,2.004-2.362,3.531c-0.188,1.531,0.349,3.021,1.567,4.499
					c0.955,1.146,2.155,1.786,3.585,1.922c1.216,0.114,2.349-0.139,3.409-0.766c0.81-0.478,1.355-1.25,1.654-2.322
					c0.129-0.477,0.302-1.527,0.551-3.168c0.228-0.139,0.579-0.034,1.057,0.314c0.674,0.421,1.035,0.647,1.083,0.668
					c3.076,0.829,5.21,1.684,6.497,2.513l0.951,0.154l0.351-0.841l-0.403-1.047C174.447,113.444,172.286,111.938,169.422,110.971z
					 M162.488,113.548l-0.185,0.459l-1.038,1.453c-0.711,0.616-1.247,0.656-1.605,0.117c-0.285-0.434,0.028-0.969,0.943-1.604
					C161.364,113.472,161.992,113.33,162.488,113.548z"/>
				<path style="fill:#009D53;" d="M179.334,68.401l-6.115-2.609c-9.152,3.341-17.884,7.508-25.998,12.918l6.426,1.666
					c5.072-3.372,10.497-6.033,16.225-8.102l0.307,0.693c-4.862,3.923-8.831,9.558-11.547,16.816l6.811,3.538
					c2.011-1.007,4.16-1.57,6.7-1.047c2.475,0.395,4.677,1.312,6.607,2.741l5.029,4.545l2.937,1.453l-12.686-30.443L179.334,68.401z
					 M177.102,99.732c0.206-0.964,0.089-1.927-0.357-2.879c-0.466-0.989-1.192-1.712-2.196-2.168
					c-1.004-0.452-1.94-0.502-2.802-0.154c-0.853,0.289-1.302,1.084-1.471,2.112c-0.17,1.035-0.007,2.014,0.477,2.947
					c0.505,0.973,1.241,1.641,2.202,2.014c0.945,0.339,1.813,0.336,2.66,0.05C176.403,101.333,176.895,100.699,177.102,99.732z
					 M178.231,91.11c-3.72-2.543-7.679-4.012-11.704-4.208c1.765-3.357,3.901-6.023,6.208-8.173L178.231,91.11z"/>
				<path style="fill:#009D53;" d="M186.111,50.17c0.535,1.712,1.863,3.057,3.929,4.052c2.575,1.214,5.386,1.45,8.515,0.699
					c0.447-0.107,1.167-0.32,2.167-0.64c2.467-0.829,4.463-1.42,5.971-1.777l3.023-0.259c0.936,0.216,1.435,0.382,1.496,0.495
					l-0.095,0.151c-0.367,0.74-0.78,1.228-1.235,1.466c-7.788,1.971-15.655,3.698-23.329,5.977c1.906,0.837,3.944,2.207,5.856,3.304
					l9.13-2.203c1.051,0.527,1.655,0.813,1.833,0.856c-0.086-0.022-0.508,0.21-1.253,0.69c-1.069,0.69-1.752,1.309-2.061,1.857
					c-0.696,0.641-1.188,1.549-1.474,2.716c-0.289,1.172-0.289,2.242-0.015,3.211c0.317,1.13,0.964,1.937,1.925,2.417
					c0.964,0.484,1.974,0.601,3.042,0.345c1.324-0.317,2.335-1.034,3.048-2.155c1.155-1.743,1.681-3.4,1.534-4.961l0.73-0.238
					c0.948-0.228,1.789,0.003,2.506,0.696c0.717,0.694,1.179,1.574,1.395,2.645l-0.028,1.3l-1.681,2.734
					c-0.376,0.394-1.17,0.992-2.359,1.795l-2.466,0.976c-2.753,0.658-6.184,0.157-10.509-1.438l7.35,9.247
					c8.818,0.514,16.994,3.55,24.002,11.352l-2.565-7.439c-1.57-1.496-3.092-2.47-4.696-3.723c-0.893-0.644-2.115-1.382-3.692-2.211
					c-1.807-0.902-3.094-1.37-3.802-1.416c3.929-2.756,5.817-6.34,5.527-10.712c-0.141-2.119-0.997-4.114-2.648-5.965
					c-1.053-1.173-2.297-1.998-3.735-2.478c-0.609-0.201-1.647-0.389-3.122-0.555c-1.007-0.104-1.619-0.345-1.829-0.73
					c5.343-1.019,10.531-3.057,16.005-3.203l-5.259-4.181l-1.99,0.465c-0.474-2.993-2.269-5.075-5.499-6.22
					c-1.684-0.597-4.582-0.419-8.653,0.555c-0.296,0.071-1.719,0.538-4.246,1.413c-2.165,0.742-3.378,1.106-3.649,1.085
					c-0.619,0.193-1.358,0.125-2.239-0.195c-0.878-0.32-1.405-0.761-1.57-1.321c-0.238-0.797,0.17-1.758,1.243-2.879
					c-0.865-0.474-1.773-0.598-2.712-0.363c-0.897,0.221-1.457,0.576-1.676,1.059C185.73,47.586,185.683,48.821,186.111,50.17z"/>
				<path style="fill:#009D53;" d="M223.394,43.349c-0.837-0.431-1.309-1.038-1.413-1.819c-0.071-0.536,0.535-1.361,1.851-2.472
					c-2.041-0.619-3.144-0.921-3.273-0.912c-0.804,0.071-1.37,0.677-1.694,1.823l-0.212,2.62c0.351,2.368,1.832,4.161,4.375,5.395
					c2.14,1.062,4.477,1.49,7.066,1.284c0.21-0.018,0.983-0.081,2.319-0.185l6.191-0.711l2.406,0.31
					c1.102,0.33,1.638,0.804,1.619,1.42l-0.748-0.068l-1.764,0.88c-8.558,0.884-17.259,0.829-25.681,2.612l5.094,3.773l12.024-0.976
					l0.979,10.564l1.41-0.11l0.025,0.292l-0.081-0.246c-0.277-0.819-0.541-1.22-0.787-1.201c-0.207,0.016-0.398,0.441-0.567,1.265
					c0.145,1.549,0.798,2.908,1.934,4.074c1.132,1.17,2.352,1.699,3.686,1.595c0.924-0.074,1.847-0.459,2.787-1.167
					c1.616-1.266,2.971-2.824,4.071-4.678l0.68,2.282c0.025,1.007-0.36,2.318-1.117,3.935c-1.146,2.448-3.098,3.781-5.931,4.005
					c-2.085,0.167-3.802-0.394-5.201-1.675l-0.619-0.712l-1.634-1.958c-1.356-1.577-2.621-3.794-3.816-6.645
					c-1.127-2.645-1.925-5.13-2.34-7.451l-3.673-1.595c1.74,6.977,2.965,11.328,3.766,13.034c1.182,2.563,1.909,4.108,2.235,4.631
					c1.783,3.024,3.298,5.186,4.607,6.476c1.863,1.841,3.978,2.795,6.414,2.858c2.364,0.024,4.388-0.585,6.13-1.826
					c3.2-2.332,4.884-6.365,4.877-12.089c-0.006-1.851-0.569-3.93-1.748-6.242c-1.339-2.636-2.817-3.892-4.344-3.775
					c-0.826,0.061-1.937,1.106-3.268,3.125c-1.327,2.02-2.057,3.036-2.247,3.052l-0.289-0.043l-0.626-0.709l-0.237-0.929
					l-0.598-8.49c5.967-0.206,11.932-1.491,17.897-0.764l-4.548-4.976l-2.411,0.172c-0.04-2.713-1.05-4.776-3.094-6.174
					c-1.783-1.167-4.185-1.746-7.165-1.727l-5.078,0.626c-2.303,0.339-3.818,0.538-4.548,0.601l-0.958,0.145l-0.193,0.018
					C225.075,43.962,224.232,43.78,223.394,43.349z"/>
				<path style="fill:#009D53;" d="M285.329,53.097l-0.745-4.945c-2-3.186-3.805-4.73-5.143-5.819
					c-4.476-3.329-9.076-5.183-13.487-5.525c-1.68-0.129-3.244,0.068-4.687,0.592c-2.069,0.769-3.627,1.573-4.698,2.398
					c-1.065,0.826-2.223,2.14-3.443,3.942c-0.479,0.68-0.722,1.69-0.738,3.029c-0.013,0.968,0.69,2.211,2.056,3.742
					c-2.675-0.271-5.352-0.407-8.03-0.065c1.561,1.527,3.085,2.78,4.575,4.542l3.953,0.292l-0.707,28.381l3.733,4.915l1.583-32.944
					l6.262,0.483l-4.261-5.071l-3.09-0.235l-0.845-2.214c-0.067-0.341,0.395-1.127,1.418-2.356l2.148-2.18l1.529-0.893
					c1.558-0.893,3.558-1.244,5.972-1.054c3.972,0.314,7.415,1.765,10.193,4.318C281.129,48.411,283.29,50.576,285.329,53.097z"/>
				<path style="fill:#009D53;" d="M276.048,70.002c1.09,1.263,1.774,2.492,2.069,3.692c1.318,5.542,1.51,10.22,0.912,13.662
					l-0.172,0.995l1.527,4.197l6.369-33.887l6.231,1.475l-3.683-5.731c-10.191-3.064-20.95-2.371-31.407-3.639l4.347,5.072
					c6.714,0.598,13.475,0.883,20.139,1.795l-2.1,12.748l-0.08-0.21c-2.192-5.595-5.223-8.172-8.597-8.511
					c-2.169-0.17-4.102,0.456-5.74,1.882c-1.65,1.426-2.525,3.292-2.684,5.589c-0.295,4.35,1.491,6.678,5.376,6.977
					c2.937,0.225,4.625-1.306,5.056-4.595c0.148-1.167-0.111-2.448-0.807-3.848C273.869,67.958,274.965,68.74,276.048,70.002z"/>
				<path style="fill:#009D53;" d="M318.288,67.443l-2.857-6.25c-9.502-3.319-19.534-5.032-29.296-7.529l3.474,5.607
					c0.671,1.583,2.217,2.965,4.644,4.144c2.592,1.311,4.064,2.269,4.434,2.876c-3.388,1.567-6.762,3.529-10.082,5.888l2.876,7.038
					c2.106,0.631,3.585,1.265,4.434,1.897c2.194,1.645,3.738,4.342,4.533,8.055c0.161,0.77,0.345,2.254,0.506,4.44l1.144,3.661
					l10.71-32.048L318.288,67.443z M295.275,90.581c0.851-0.647,1.429-1.497,1.724-2.556c0.314-1.096,0.222-2.125-0.289-3.094
					c-0.512-0.964-1.251-1.564-2.192-1.79c-0.912-0.216-1.786,0-2.606,0.653c-0.826,0.652-1.355,1.512-1.613,2.58
					c-0.27,1.109-0.148,2.146,0.345,3.11c0.487,0.968,1.176,1.552,2.075,1.765C293.587,91.452,294.438,91.227,295.275,90.581z
					 M302.376,83.8c-1.102-3.575-3.16-6.46-6.116-8.634c1.799-1.382,3.117-2.278,3.905-2.694l4.411-2.762
					c-1.615-3.883-2.957-6.472-3.832-7.72l7.79,1.882L302.376,83.8z"/>
				<path style="fill:#009D53;" d="M324.643,84.133c0.684,1.549,0.992,2.947,0.943,4.194c-0.19,5.592-1.182,9.914-2.709,13.096
					l-0.437,0.911l0.448,4.172l15.397-30.854l5.53,3.227l-1.914-6.626c-9.576-4.41-19.497-8.173-29.265-12.188l2.753,6.201
					l18.746,7.668l-5.507,11.689l-0.025-0.213c-0.671-5.782-2.753-9.401-5.899-10.685c-2.014-0.826-4.022-0.804-5.974,0.071
					c-1.952,0.874-3.294,2.407-4.077,4.575c-1.464,4.108-0.398,6.901,3.204,8.372c2.723,1.118,4.742,0.151,6.06-2.897
					c0.454-1.078,0.565-2.396,0.282-3.963C323.136,81.493,323.961,82.581,324.643,84.133z"/>
				<path style="fill:#009D53;" d="M372.686,95.677c-0.682-2.568-2.008-4.631-3.916-6.137c-2.328-2.054-5.098-2.562-7.649-2.334
					c-1.318,0.135-2.795,0.523-4.409,1.167c-1.947,0.786-3.165,1.62-3.707,2.467c-0.456,0.708-0.592,1.508-0.42,2.395
					c0.172,0.887,0.586,1.527,1.251,1.927c0.301,0.179,0.929,0.336,1.889,0.474c0.962,0.136,1.638,0.302,2.033,0.487
					c0.696,0.37,0.573,1.225-0.37,2.568l-1.01,0.782l-4.853,1.493l3.29,4.874l13.77-2.503l-0.345,2.82
					c-0.197,0.662-0.531,1.585-1.012,2.769l-10.647,12.559c-0.056,2.571,0.006,4.554,0.228,5.99L378.1,102.59l4.395,3.645
					l-0.345-6.26l-0.843-1.019l-0.32-0.763c-0.011-0.499,0.27-1.161,0.857-1.986l0.123-0.634l-0.918-3.859l-6.995,9.33l-1.337,1.922
					C373.327,100.475,373.314,98.045,372.686,95.677z M360.801,93.001c2.02-0.896,3.93-0.373,5.888,1.235
					c0.868,0.714,1.466,1.834,1.767,3.343l-7.243,1.136C362.253,96.361,362.278,94.218,360.801,93.001z"/>
				<path style="fill:#009D53;" d="M407.825,125.597l2.575-4.104c0.289-3.461,0.234-6.073-0.075-7.75
					c-1.06-5.583-3.177-10.131-6.158-13.41c-1.14-1.247-2.408-2.171-3.799-2.759c-1.947-0.911-3.922-1.04-5.29-1.111
					c-1.41-0.012-3.221,0.289-5.407,0.924c-0.837,0.231-1.699,0.847-2.592,1.847c-0.647,0.718-0.893,2.066-0.77,4.019l-6.208-5.148
					l0.425,6.491l3.054,2.531l-19.22,20.893l-0.167,5.862l22.891-23.746l4.213,4.664l0.27-6.746l-2.161-2.217l0.757-2.159
					c0.167-0.295,1.059-0.612,2.709-0.932c1.312-0.219,2.255-0.213,3.031-0.213l1.699,0.376c1.724,0.394,3.411,1.499,5.037,3.298
					c2.679,2.959,4.225,6.414,4.545,10.245L407.825,125.597z"/>
				<path style="fill:#009D53;" d="M408.036,134.133l0.96-6.667l-19.522-21.579l-0.056,6.827l12.157,13.524l-0.584,0.483
					c-5.593-3.175-12.107-5.478-19.252-6.663l-1.811,7.775c1.379,1.792,2.292,3.911,2.698,6.306
					c0.406,2.399,0.209,4.693-0.579,6.885l-2.845,5.946l-0.475,3.119l25.841-20.496L408.036,134.133z M376.86,140.882
					c1.023-0.092,1.935-0.48,2.729-1.17c0.826-0.715,1.307-1.595,1.429-2.651c0.13-1.057-0.129-1.937-0.745-2.627
					c-0.604-0.665-1.404-0.961-2.401-0.88c-0.998,0.079-1.88,0.486-2.65,1.203c-0.793,0.748-1.255,1.663-1.403,2.731
					c-0.142,1.072,0.073,1.927,0.671,2.589C375.058,140.714,375.845,140.978,376.86,140.882z M385.73,139.411
					c1.318-4.179,1.447-8.216,0.431-12.052c3.799,0.714,7.156,1.869,9.982,3.393L385.73,139.411z"/>
				<path style="fill:#009D53;" d="M422.802,156.787l1.713-6.171c-5.673-8.283-10.594-17.175-17.047-24.858l-0.579,4.838
					l-0.061,0.584l-0.124,0.709l-0.301,0.911c-0.918,1.355-1.318,2.605-1.213,3.76c0.086,0.733,0.628,1.859,1.638,3.396
					c1.016,1.537,1.594,2.685,1.742,3.446c-2.876-0.854-6.545-1.7-10.931-2.418l-2.698,7.362c3.087,5.026,2.358,10.882-2.487,17.105
					l-1.307,3.378l28.631-16.837L422.802,156.787z M399.642,159.179c1.299-3.442,1.816-6.984,1.558-10.593
					c3.146,0.355,5.357,0.853,6.57,1.398c0.008,0.09-0.117,0.514-0.376,1.272l-1.058,3.774L399.642,159.179z M410.887,152.211
					c0.276-1.718,0.437-3.162,0.487-4.314c0.64-1.626,1.059-3.904,1.213-6.879l4.729,7.208L410.887,152.211z"/>
				<path style="fill:#009D53;" d="M424.994,161.532l9.935,21.794l2.475-5.991c-4.761-9.565-8.099-19.938-14.207-28.754
					l-1.515,6.325l1.318,2.306l-15.426,8.431l-2.956,6.721c6.256-0.976,11.387,0.259,15.353,3.661
					c-2.397,0.424-4.6,1.111-6.627,2.022c-2.684,1.201-6.564,3.631-11.718,7.11l-0.4,3.639l1.102-0.631
					c3.652-2.088,5.66-3.242,6.041-3.402l2.372-1.18c4.169-1.755,9.379-2.583,15.746-2.133l1.872-7.263
					c-3.288-3.071-5.986-4.973-8.116-5.798l-3.93-1.478l-1.01-0.388L424.994,161.532z"/>
			</g>
		</g>
	</g>
	<polygon style="fill:#34328F;" points="67.935,217.909 74.654,238.398 96.386,238.398 78.804,251.057 85.523,271.539 
		67.935,258.878 50.365,271.539 57.065,251.057 39.489,238.398 61.216,238.398 	"/>
	<polygon style="fill:#34328F;" points="434.011,217.909 440.723,238.398 462.451,238.398 444.875,251.057 451.575,271.539 
		434.011,258.878 416.436,271.539 423.136,251.057 405.56,238.398 427.286,238.398 	"/>
</g>
</svg>
